<svg width="28" height="24" viewBox="0 0 28 24" fill="none" xmlns="http://www.w3.org/2000/svg">
<path d="M28 14.5639C28 17.6354 27.0225 20.5509 25.1731 22.9958C24.8083 23.4784 24.1221 23.572 23.641 23.2082C23.1593 22.8437 23.0642 22.1578 23.4285 21.6761C24.9881 19.6144 25.8125 17.1549 25.8125 14.5639C25.8125 8.03516 20.5251 2.75781 14 2.75781C7.4704 2.75781 2.1875 8.03922 2.1875 14.5639C2.1875 17.1549 3.01187 19.6144 4.57132 21.6761C4.93576 22.1578 4.8407 22.8437 4.35898 23.2082C3.87704 23.5726 3.19131 23.4775 2.82666 22.9958C0.977539 20.5509 0 17.6354 0 14.5639C0 6.82562 6.26599 0.570312 14 0.570312C21.7383 0.570312 28 6.8299 28 14.5639ZM20.9301 7.97684C21.3572 8.40387 21.3572 9.09644 20.9301 9.52347L17.365 13.0886C17.6585 13.6297 17.8256 14.2492 17.8256 14.9068C17.8256 17.0163 16.1093 18.7323 14 18.7323C11.8905 18.7323 10.1744 17.0163 10.1744 14.9068C10.1744 12.7975 11.8905 11.0812 14 11.0812C14.6577 11.0812 15.277 11.2483 15.8181 11.5418L19.3833 7.97662C19.8105 7.54959 20.5029 7.54959 20.9301 7.97684ZM15.6381 14.907C15.6381 14.0038 14.9032 13.2689 14 13.2689C13.0968 13.2689 12.3619 14.0038 12.3619 14.907C12.3619 15.8102 13.0968 16.545 14 16.545C14.9032 16.545 15.6381 15.8102 15.6381 14.907Z" fill="#18A558"/>
</svg>
