<svg width="28" height="28" viewBox="0 0 28 28" fill="none" xmlns="http://www.w3.org/2000/svg">
<path d="M4.2311 28H23.7689C25.817 28 27.4815 26.3355 27.4815 24.2874V5.78664C27.4815 3.73849 25.817 2.07403 23.7689 2.07403H22.2963V1.03702C22.2963 0.466641 21.8296 0 21.2592 0C20.6888 0 20.2222 0.466641 20.2222 1.03702V2.07403H7.77779V1.03702C7.77779 0.466641 7.31107 0 6.74069 0C6.17031 0 5.70367 0.466641 5.70367 1.03702V2.07403H4.2311C2.18295 2.07403 0.518494 3.73849 0.518494 5.78664V24.2874C0.518494 26.3355 2.18295 28 4.2311 28ZM2.59262 5.78664C2.59262 4.88444 3.3289 4.14816 4.2311 4.14816H5.70367V5.18517C5.70367 5.75555 6.17031 6.22219 6.74069 6.22219C7.31107 6.22219 7.77771 5.75555 7.77771 5.18517V4.14816H20.2222V5.18517C20.2222 5.75555 20.6888 6.22219 21.2592 6.22219C21.8296 6.22219 22.2962 5.75555 22.2962 5.18517V4.14816H23.7688C24.671 4.14816 25.4073 4.88444 25.4073 5.78664V24.2874C25.4073 25.1896 24.671 25.9259 23.7688 25.9259H4.2311C3.3289 25.9259 2.59262 25.1896 2.59262 24.2874V5.78664Z" fill="#343434"/>
<path d="M8.03706 11.9259C8.75297 11.9259 9.33333 11.3455 9.33333 10.6296C9.33333 9.91369 8.75297 9.33333 8.03706 9.33333C7.32114 9.33333 6.74078 9.91369 6.74078 10.6296C6.74078 11.3455 7.32114 11.9259 8.03706 11.9259Z" fill="#343434"/>
<path d="M13.7407 11.9259C14.4566 11.9259 15.037 11.3455 15.037 10.6296C15.037 9.91369 14.4566 9.33333 13.7407 9.33333C13.0248 9.33333 12.4445 9.91369 12.4445 10.6296C12.4445 11.3455 13.0248 11.9259 13.7407 11.9259Z" fill="#343434"/>
<path d="M19.4444 11.9259C20.1603 11.9259 20.7407 11.3455 20.7407 10.6296C20.7407 9.91369 20.1603 9.33333 19.4444 9.33333C18.7285 9.33333 18.1481 9.91369 18.1481 10.6296C18.1481 11.3455 18.7285 11.9259 19.4444 11.9259Z" fill="#343434"/>
<path d="M8.03706 17.1111C8.75297 17.1111 9.33333 16.5307 9.33333 15.8148C9.33333 15.0989 8.75297 14.5185 8.03706 14.5185C7.32114 14.5185 6.74078 15.0989 6.74078 15.8148C6.74078 16.5307 7.32114 17.1111 8.03706 17.1111Z" fill="#343434"/>
<path d="M13.7407 17.1111C14.4566 17.1111 15.037 16.5307 15.037 15.8148C15.037 15.0989 14.4566 14.5185 13.7407 14.5185C13.0248 14.5185 12.4445 15.0989 12.4445 15.8148C12.4445 16.5307 13.0248 17.1111 13.7407 17.1111Z" fill="#343434"/>
<path d="M19.4444 17.1111C20.1603 17.1111 20.7407 16.5307 20.7407 15.8148C20.7407 15.0989 20.1603 14.5185 19.4444 14.5185C18.7285 14.5185 18.1481 15.0989 18.1481 15.8148C18.1481 16.5307 18.7285 17.1111 19.4444 17.1111Z" fill="#343434"/>
<path d="M8.03706 22.2962C8.75297 22.2962 9.33333 21.7159 9.33333 21C9.33333 20.284 8.75297 19.7037 8.03706 19.7037C7.32114 19.7037 6.74078 20.284 6.74078 21C6.74078 21.7159 7.32114 22.2962 8.03706 22.2962Z" fill="#343434"/>
<path d="M13.7407 22.2962C14.4566 22.2962 15.037 21.7159 15.037 21C15.037 20.284 14.4566 19.7037 13.7407 19.7037C13.0248 19.7037 12.4445 20.284 12.4445 21C12.4445 21.7159 13.0248 22.2962 13.7407 22.2962Z" fill="#343434"/>
<path d="M19.4444 22.2962C20.1603 22.2962 20.7407 21.7159 20.7407 21C20.7407 20.284 20.1603 19.7037 19.4444 19.7037C18.7285 19.7037 18.1481 20.284 18.1481 21C18.1481 21.7159 18.7285 22.2962 19.4444 22.2962Z" fill="#343434"/>
</svg>
