<svg width="28" height="28" viewBox="0 0 28 28" fill="none" xmlns="http://www.w3.org/2000/svg">
<g clip-path="url(#clip0_603_160)">
<path d="M27.125 19.1266H26.0791V6.3881C26.078 5.44458 25.7028 4.54001 25.0356 3.87284C24.3684 3.20568 23.4638 2.83041 22.5203 2.82937H5.47969C4.53618 2.83044 3.63163 3.20572 2.96447 3.87288C2.29731 4.54004 1.92202 5.44459 1.92095 6.3881V19.1266H0.875C0.642936 19.1266 0.420376 19.2188 0.256282 19.3829C0.0921872 19.547 0 19.7696 0 20.0016L0 21.2575C0.0011869 22.295 0.413854 23.2896 1.14747 24.0232C1.88108 24.7568 2.87574 25.1695 3.91322 25.1706H24.0868C25.1243 25.1695 26.1189 24.7568 26.8525 24.0232C27.5861 23.2896 27.9988 22.295 28 21.2575V20.0016C28 19.7696 27.9078 19.547 27.7437 19.3829C27.5796 19.2188 27.3571 19.1266 27.125 19.1266ZM3.6709 6.3881C3.67145 5.90855 3.8622 5.44881 4.20129 5.10972C4.54039 4.77064 5.00014 4.5799 5.47969 4.57937H22.5203C22.9998 4.57992 23.4596 4.77066 23.7987 5.10974C24.1377 5.44883 24.3285 5.90857 24.329 6.3881V19.1266H3.6709V6.3881ZM26.25 21.2575C26.2493 21.831 26.0212 22.3808 25.6157 22.7864C25.2101 23.1919 24.6603 23.42 24.0868 23.4206H3.91322C3.3397 23.42 2.78986 23.1919 2.38431 22.7864C1.97877 22.3808 1.75065 21.831 1.75 21.2575V20.8766H26.25V21.2575ZM14.8779 5.96312C14.8779 6.19519 14.7857 6.41775 14.6216 6.58184C14.4575 6.74594 14.235 6.83812 14.0029 6.83812H13.9971C13.765 6.83812 13.5425 6.74594 13.3784 6.58184C13.2143 6.41775 13.1221 6.19519 13.1221 5.96312C13.1221 5.73106 13.2143 5.5085 13.3784 5.34441C13.5425 5.18031 13.765 5.08812 13.9971 5.08812H14.0029C14.235 5.08812 14.4575 5.18031 14.6216 5.34441C14.7857 5.5085 14.8779 5.73106 14.8779 5.96312Z" fill="#343434"/>
</g>
<defs>
<clipPath id="clip0_603_160">
<rect width="28" height="28" fill="white"/>
</clipPath>
</defs>
</svg>
