<svg width="28" height="28" viewBox="0 0 28 28" fill="none" xmlns="http://www.w3.org/2000/svg">
<path d="M25.9875 18.2219C25.3094 17.8938 24.4891 18.1836 24.1609 18.8617C23.2531 20.7484 21.8422 22.3453 20.0758 23.4828C18.2656 24.6477 16.1656 25.2656 14 25.2656C7.7875 25.2656 2.73438 20.2125 2.73438 14C2.73438 7.7875 7.7875 2.73438 14 2.73438C16.1656 2.73438 18.2656 3.35234 20.0813 4.51172C21.8477 5.64375 23.2586 7.24609 24.1664 9.13281C24.4945 9.81094 25.3094 10.1008 25.993 9.77266C26.6711 9.44453 26.9609 8.62969 26.6328 7.94609C25.5063 5.6 23.7563 3.61484 21.5578 2.20938C19.3047 0.765625 16.6906 0 14 0C10.2594 0 6.74297 1.45469 4.10156 4.10156C1.45469 6.74297 0 10.2594 0 14C0 17.7406 1.45469 21.257 4.10156 23.8984C6.74844 26.5453 10.2594 28 14 28C16.6906 28 19.3047 27.2344 21.5578 25.7852C23.7508 24.3742 25.5063 22.3891 26.6328 20.0484C26.9555 19.3648 26.6711 18.55 25.9875 18.2219Z" fill="#343434"/>
<path d="M14.7274 19.3211C14.9953 19.5891 15.3453 19.7203 15.6953 19.7203C16.0453 19.7203 16.3953 19.5891 16.6633 19.3211L20.1031 15.8813C20.6063 15.3781 20.8797 14.711 20.8797 14.0055C20.8797 13.3 20.6008 12.6274 20.1031 12.1297L16.6633 8.68986C16.1274 8.15392 15.2633 8.15392 14.7274 8.68986C14.1914 9.22579 14.1914 10.0899 14.7274 10.6258L16.7453 12.6438H8.97424C8.21956 12.6438 7.60706 13.2563 7.60706 14.011C7.60706 14.7656 8.21956 15.3781 8.97424 15.3781H16.7508L14.7328 17.3961C14.1969 17.9211 14.1969 18.7852 14.7274 19.3211Z" fill="#343434"/>
</svg>
