<svg width="28" height="28" viewBox="0 0 28 28" fill="none" xmlns="http://www.w3.org/2000/svg">
<path d="M25 0H3C1.34314 0 0 1.34314 0 3V25C0 26.6569 1.34314 28 3 28H25C26.6569 28 28 26.6569 28 25V3C28 1.34314 26.6569 0 25 0ZM26 25C26 25.5523 25.5522 26 24.9999 26H3C2.44769 26 1.99998 25.5523 1.99998 25V3C1.99998 2.44769 2.44769 1.99998 3 1.99998H25C25.5523 1.99998 26 2.44769 26 3V25H26Z" fill="#343434"/>
<path d="M9.00002 6H6.00002C5.44771 6 5 6.44771 5 7.00001C5 7.55232 5.44771 8.00003 6.00002 8.00003H9.00002C9.55232 8.00003 10 7.55232 10 7.00001C10 6.44771 9.55232 6 9.00002 6Z" fill="#343434"/>
<path d="M22 6H13C12.4477 6 12 6.44771 12 7.00001C12 7.55232 12.4477 8.00003 13 8.00003H22C22.5523 8.00003 23 7.55232 23 7.00001C23 6.44771 22.5523 6 22 6Z" fill="#343434"/>
<path d="M9.00002 13H6.00002C5.44771 13 5 13.4477 5 14C5 14.5523 5.44771 15 6.00002 15H9.00002C9.55232 15 10 14.5523 10 14C10 13.4477 9.55232 13 9.00002 13Z" fill="#343434"/>
<path d="M22 13H13C12.4477 13 12 13.4477 12 14C12 14.5523 12.4477 15 13 15H22C22.5523 15 23 14.5523 23 14C23 13.4477 22.5523 13 22 13Z" fill="#343434"/>
<path d="M9.00002 20H6.00002C5.44771 20 5 20.4477 5 21C5 21.5523 5.44771 22 6.00002 22H9.00002C9.55232 22 10 21.5523 10 21C10 20.4477 9.55232 20 9.00002 20Z" fill="#343434"/>
<path d="M22 20H13C12.4477 20 12 20.4477 12 21C12 21.5523 12.4477 22 13 22H22C22.5523 22 23 21.5523 23 21C23 20.4477 22.5523 20 22 20Z" fill="#343434"/>
</svg>
