<svg width="28" height="28" viewBox="0 0 28 28" fill="none" xmlns="http://www.w3.org/2000/svg">
<g clip-path="url(#clip0_603_184)">
<path d="M15.0938 20.4531C15.0938 21.0572 14.6041 21.5469 14 21.5469H7.54688C6.9428 21.5469 6.45312 21.0572 6.45312 20.4531C6.45312 19.849 6.9428 19.3594 7.54688 19.3594H14C14.6041 19.3594 15.0938 19.849 15.0938 20.4531ZM28 6.5707V19.3776C28 21.0569 27.346 22.6356 26.1586 23.8231L23.8231 26.1586C22.6356 27.346 21.0569 28 19.3776 28H6.5707C2.93885 28 0 25.0608 0 21.4293V6.5707C0 2.93885 2.93918 0 6.5707 0H21.4293C25.0611 0 28 2.93918 28 6.5707ZM25.6658 20.4713H22.6588C21.4526 20.4713 20.4713 21.4526 20.4713 22.6588V25.6658C21.1474 25.4798 21.767 25.121 22.2762 24.6118L24.6118 22.2762C25.121 21.767 25.4798 21.1474 25.6658 20.4713ZM25.8125 6.5707C25.8125 4.14799 23.8519 2.1875 21.4293 2.1875H6.5707C4.14799 2.1875 2.1875 4.1481 2.1875 6.5707V21.4293C2.1875 23.852 4.1481 25.8125 6.5707 25.8125H18.2838V22.6588C18.2838 20.2465 20.2465 18.2838 22.6588 18.2838H25.8125V6.5707ZM20.4531 12.9062H7.54688C6.9428 12.9062 6.45312 13.3959 6.45312 14C6.45312 14.6041 6.9428 15.0938 7.54688 15.0938H20.4531C21.0572 15.0938 21.5469 14.6041 21.5469 14C21.5469 13.3959 21.0572 12.9062 20.4531 12.9062ZM20.4531 6.45312H7.54688C6.9428 6.45312 6.45312 6.9428 6.45312 7.54688C6.45312 8.15095 6.9428 8.64062 7.54688 8.64062H20.4531C21.0572 8.64062 21.5469 8.15095 21.5469 7.54688C21.5469 6.9428 21.0572 6.45312 20.4531 6.45312Z" fill="#343434"/>
</g>
<defs>
<clipPath id="clip0_603_184">
<rect width="28" height="28" fill="white"/>
</clipPath>
</defs>
</svg>
