<svg width="28" height="28" viewBox="0 0 28 28" fill="none" xmlns="http://www.w3.org/2000/svg">
<path d="M4.10135 0C1.83994 0 0 1.83994 0 4.10135V21.3275H10.2392L13.9996 28L17.76 21.3275H23.8976C26.1592 21.3275 27.9991 19.4875 27.9991 17.2259V0L4.10135 0ZM26 17.2259C26 18.5829 25.2545 19.5 23.8976 19.5H16.5L13.9996 24L11.1937 19.5H2V4.10135C2 2.74442 2.74442 2 4.10135 2H26V17.2259Z" fill="#343434"/>
<path d="M20.5619 14.7652C21.9188 14.7652 23.0226 13.6612 23.0226 12.3043V9.02322C23.0226 7.66629 21.9188 6.56229 20.5619 6.56229C19.205 6.56229 18.101 7.66629 18.101 9.02322V12.3043C18.101 13.6612 19.205 14.7652 20.5619 14.7652ZM19.7416 9.02322C19.7416 8.57077 20.1094 8.20291 20.5619 8.20291C21.0141 8.20291 21.3822 8.57077 21.3822 9.02322V12.3043C21.3822 12.7565 21.0141 13.1246 20.5619 13.1246C20.1094 13.1246 19.7416 12.7565 19.7416 12.3043V9.02322Z" fill="#343434"/>
<path d="M13.9996 14.7652C15.3565 14.7652 16.4603 13.6612 16.4603 12.3043V9.02322C16.4603 7.66629 15.3565 6.56229 13.9996 6.56229C12.6426 6.56229 11.5386 7.66629 11.5386 9.02322V12.3043C11.5386 13.6612 12.6426 14.7652 13.9996 14.7652ZM13.1793 9.02322C13.1793 8.57077 13.5473 8.20291 13.9996 8.20291C14.4518 8.20291 14.8199 8.57077 14.8199 9.02322V12.3043C14.8199 12.7565 14.4518 13.1246 13.9996 13.1246C13.5473 13.1246 13.1793 12.7565 13.1793 12.3043V9.02322Z" fill="#343434"/>
<path d="M9.89798 13.1246H8.25757V6.56229H4.97632V8.20291H6.61694V13.1246H4.97632V14.7652H9.89798V13.1246Z" fill="#343434"/>
</svg>
