<svg width="28" height="28" viewBox="0 0 28 28" fill="none" xmlns="http://www.w3.org/2000/svg">
<path d="M16.6506 0.199664C15.8315 0.0652969 15.0898 0 14.3828 0C6.69331 0 0.437439 6.28037 0.437439 14C0.437439 21.7196 6.69331 28 14.3828 28C20.3156 28 25.5948 24.1625 27.5195 18.4507C27.6466 18.0735 27.4846 17.6595 27.1352 17.4687C26.7858 17.278 26.35 17.3656 26.1015 17.6765C24.2184 20.0319 21.442 21.3828 18.4843 21.3828C13.0565 21.3828 8.64057 16.9669 8.64057 11.5391C8.64057 6.77316 12.0167 2.68379 16.6683 1.81557C17.0599 1.74245 17.3424 1.39858 17.338 1.00018C17.3336 0.601836 17.0437 0.264195 16.6506 0.199664ZM6.99994 11.5391C6.99994 17.8715 12.1518 23.0234 18.4843 23.0234C20.4526 23.0234 22.3509 22.5134 24.0263 21.5676C21.7486 24.5335 18.2202 26.3594 14.3828 26.3594C7.59795 26.3594 2.07806 20.815 2.07806 14C2.07806 7.89255 6.51175 2.80547 12.3157 1.81502C8.92117 3.99416 6.99994 7.71203 6.99994 11.5391Z" fill="#343434"/>
<path d="M23.3909 9.67766C23.2948 9.38219 23.04 9.16633 22.7328 9.12007L19.7478 8.67076L18.3977 5.96996C18.2588 5.69198 17.9747 5.51643 17.664 5.51643C17.3533 5.51643 17.0692 5.69198 16.9302 5.96996L15.5802 8.67076L12.5952 9.12007C12.2879 9.16633 12.0332 9.38213 11.9371 9.67766C11.8411 9.97314 11.9202 10.2975 12.1415 10.5156L14.2918 12.6343L13.7962 15.6125C13.7452 15.9189 13.8718 16.228 14.1231 16.4107C14.3745 16.5933 14.7075 16.6184 14.9833 16.4753L17.664 15.0843L20.3448 16.4753C20.6206 16.6183 20.9536 16.5934 21.205 16.4107C21.4563 16.228 21.5828 15.919 21.5319 15.6125L21.0362 12.6343L23.1866 10.5156C23.4078 10.2975 23.4869 9.97314 23.3909 9.67766ZM19.5813 11.7646C19.391 11.952 19.304 12.2203 19.3478 12.4836L19.644 14.2634L18.0418 13.4321C17.9233 13.3706 17.7937 13.3399 17.664 13.3399C17.5343 13.3399 17.4047 13.3706 17.2862 13.4321L15.684 14.2634L15.9802 12.4836C16.024 12.2203 15.937 11.952 15.7467 11.7646L14.4615 10.4983L16.2456 10.2298C16.5096 10.19 16.7378 10.0243 16.8572 9.7854L17.664 8.17146L18.4707 9.7854C18.5902 10.0243 18.8183 10.19 19.0824 10.2298L20.8665 10.4983L19.5813 11.7646Z" fill="#343434"/>
</svg>
